#!OML:ASF X:\für Bonn\!DataBase\2005_08_12_Daniel\c3d\Daniel.ASF
:FULLY-SPECIFIED
:DEGREES
32
root 3.93311 16.9116 -2.24181 -164.366 -74.2245 139.586
lowerback 27.1709 -3.68642 8.37882
upperback 6.30332 -4.10685 -8.55887
thorax -8.84562 -2.52778 -12.4514
lowerneck 2.88277 8.42742 -11.2073
upperneck 9.02938 10.9698 -5.19663
head 2.09169 4.72957 0.23887
rclavicle -4.92116e-014 1.11319e-014
rhumerus -43.4894 1.06173 -86.665
rradius 32.1446
rwrist 37.3984
rhand -20.292 22.6272
rfingers 7.12502
rthumb 6.05791 -7.26621
lclavicle -4.92116e-014 1.11319e-014
lhumerus -36.4826 -10.5643 81.7413
lradius 131.954
lwrist 15.9548
lhand -20.5174 -25.7849
lfingers 7.12502
lthumb 5.84033 4.11457
rfemur 3.57664 6.60911 13.7802
rtibia 43.1537
rfoot -26.9741 -10.1084
rtoes -9.44402
lfemur -41.4974 15.0854 -14.4664
ltibia 114.858
lfoot 32.3042 -14.1984
ltoes -25.7653
33
root 3.91708 16.9333 -2.23367 -165.28 -73.7344 138.934
lowerback 28.5448 -3.45068 8.80535
upperback 6.79433 -3.71928 -8.95138
thorax -8.86837 -2.36295 -13.2366
lowerneck 2.84657 8.07941 -11.2975
upperneck 9.5384 10.5345 -5.02816
head 2.26505 4.47736 0.322161
rclavicle 2.69602e-015 2.74323e-014
rhumerus -43.0808 2.6339 -87.693
rradius 32.6416
rwrist 36.6766
rhand -20.1278 22.5894
rfingers 7.12502
rthumb 6.21646 -7.29936
lclavicle 2.69602e-015 2.74323e-014
lhumerus -35.2345 -12.0084 80.9448
lradius 131.617
lwrist 16.5718
lhand -20.9206 -25.6411
lfingers 7.12502
lthumb 5.45098 4.26878
rfemur 5.78614 7.22908 13.6584
rtibia 42.1432
rfoot -26.6496 -10.3043
rtoes -9.65775
lfemur -44.2271 16.9948 -13.9286
ltibia 117.867
lfoot 33.9824 -15.0732
ltoes -24.9854
34
root 3.89993 16.947 -2.22633 -166.222 -73.2503 138.305
lowerback 29.91 -3.2228 9.13975
upperback 7.29493 -3.36334 -9.30069
thorax -8.84853 -2.20718 -13.9207
lowerneck 2.77914 7.78077 -11.2057
upperneck 10.1963 10.1871 -4.9941
head 2.51102 4.25825 0.339222
rclavicle -1.99654e-014 1.98785e-014
rhumerus -42.6606 4.40386 -88.7036
rradius 33.1682
rwrist 35.6124
rhand -19.8954 22.4862
rfingers 7.12502
rthumb 6.44081 -7.39585
lclavicle -1.99654e-014 1.98785e-014
lhumerus -33.9339 -13.4271 80.0293
lradius 131.292
lwrist 17.1845
lhand -21.2541 -25.4158
lfingers 7.12502
lthumb 5.12905 4.50214
rfemur 7.96819 7.7765 13.5261
rtibia 41.1623
rfoot -26.2941 -10.4282
rtoes -9.8486
lfemur -47.1844 19.0743 -13.379
ltibia 120.719
lfoot 35.9759 -15.8358
ltoes -24.1825
35
root 3.88142 16.9521 -2.21984 -167.226 -72.788 137.715
lowerback 31.2816 -3.01018 9.41076
upperback 7.8134 -3.04376 -9.61338
thorax -8.78941 -2.06364 -14.5218
lowerneck 2.71934 7.55221 -11.115
upperneck 10.8875 9.92757 -4.88858
head 2.76333 4.08351 0.377378
rclavicle 8.77137e-015 -7.95139e-015
rhumerus -42.3045 6.33425 -89.6803
rradius 33.8024
rwrist 34.2252
rhand -19.5418 22.3568
rfingers 7.12502
rthumb 6.78217 -7.51453
lclavicle 8.77137e-015 -7.95139e-015
lhumerus -32.5753 -14.8543 79.0036
lradius 130.945
lwrist 17.8048
lhand -21.5144 -25.2372
lfingers 7.12502
lthumb 4.87767 4.68668
rfemur 10.1063 8.17714 13.3561
rtibia 40.2707
rfoot -25.9277 -10.4218
rtoes -10.1481
lfemur -50.2729 21.1897 -12.9031
ltibia 123.287
lfoot 38.1222 -16.3695
ltoes -23.7242
36
root 3.86114 16.9504 -2.21568 -168.2 -72.3193 137.095
lowerback 32.6625 -2.79738 9.58202
upperback 8.31596 -2.75397 -9.89644
thorax -8.72945 -1.93246 -15.0275
lowerneck 2.6762 7.3731 -11.1721
upperneck 11.5658 9.71317 -4.60333
head 2.99356 3.93406 0.493804
rclavicle -6.68165e-014 -2.18663e-014
rhumerus -42.0727 8.38551 -90.5757
rradius 34.5933
rwrist 32.7459
rhand -19.1964 22.1735
rfingers 7.12502
rthumb 7.11554 -7.68693
lclavicle -6.68165e-014 -2.18663e-014
lhumerus -31.2385 -16.2316 77.8194
lradius 130.593
lwrist 18.5033
lhand -21.5621 -25.151
lfingers 7.12502
lthumb 4.83159 4.77395
rfemur 12.1723 8.53334 13.1446
rtibia 39.4815
rfoot -25.5871 -10.3263
rtoes -10.4928
lfemur -53.4972 23.2932 -12.5694
ltibia 125.499
lfoot 40.3328 -16.6929
ltoes -23.1963
37
root 3.8371 16.9409 -2.21297 -169.19 -71.8669 136.397
lowerback 34.1256 -2.59503 9.69337
upperback 8.83174 -2.50015 -10.1678
thorax -8.67047 -1.81834 -15.4755
lowerneck 2.70971 7.22782 -11.2712
upperneck 12.1887 9.51716 -4.22705
head 3.18658 3.80169 0.641887
rclavicle 5.11871e-015 1.27222e-014
rhumerus -41.8658 10.3627 -91.344
rradius 35.4917
rwrist 31.2019
rhand -18.8647 22.0727
rfingers 7.12502
rthumb 7.43573 -7.77658
lclavicle 5.11871e-015 1.27222e-014
lhumerus -29.9038 -17.6077 76.4933
lradius 130.215
lwrist 19.1842
lhand -21.5809 -25.2332
lfingers 7.12502
lthumb 4.81348 4.69216
rfemur 14.3197 8.77978 12.8567
rtibia 38.7183
rfoot -25.2473 -10.1206
rtoes -10.8135
lfemur -56.8377 25.301 -12.412
ltibia 127.361
lfoot 42.4895 -16.9708
ltoes -22.4147
38
root 3.80938 16.9296 -2.21278 -170.043 -71.3997 135.467
lowerback 35.6576 -2.37496 9.66366
upperback 9.36796 -2.28143 -10.4291
thorax -8.59546 -1.72046 -15.8194
lowerneck 2.73555 7.12117 -11.4201
upperneck 12.8215 9.36453 -3.79724
head 3.38133 3.6901 0.817002
rclavicle -1.23743e-014 1.74931e-014
rhumerus -41.6011 12.16 -91.9328
rradius 36.4409
rwrist 29.7196
rhand -18.4948 22.005
rfingers 7.12502
rthumb 7.79282 -7.83137
lclavicle -1.23743e-014 1.74931e-014
lhumerus -28.4514 -18.9339 75.0467
lradius 129.783
lwrist 19.9533
lhand -21.4306 -25.3638
lfingers 7.12502
lthumb 4.95859 4.55818
rfemur 16.5848 8.99443 12.4477
rtibia 37.8906
rfoot -24.8784 -9.807
rtoes -11.0777
lfemur -60.1992 27.0939 -12.5241
ltibia 128.782
lfoot 44.4063 -17.2426
ltoes -21.3871
39
root 3.78126 16.9259 -2.21482 -170.983 -70.9554 134.632
lowerback 37.2444 -2.14484 9.55908
upperback 9.83675 -2.06903 -10.6133
thorax -8.58096 -1.62993 -16.0317
lowerneck 2.78963 7.06523 -11.7025
upperneck 13.5393 9.25961 -3.2518
head 3.59165 3.59349 1.05377
rclavicle -1.33931e-014 6.44062e-014
rhumerus -41.3371 13.7857 -92.2867
rradius 37.3198
rwrist 28.2768
rhand -18.1302 22.0384
rfingers 7.12502
rthumb 8.14463 -7.78462
lclavicle -1.33931e-014 6.44062e-014
lhumerus -26.9015 -20.2299 73.5519
lradius 129.284
lwrist 20.8366
lhand -21.2004 -25.4482
lfingers 7.12502
lthumb 5.18085 4.46843
rfemur 18.9067 9.16632 12.0408
rtibia 36.9281
rfoot -24.445 -9.47698
rtoes -11.3492
lfemur -63.5942 28.5366 -12.8252
ltibia 129.71
lfoot 45.9951 -17.4374
ltoes -20.8946
40
root 3.75741 16.9357 -2.22035 -172.136 -70.5572 134.047
lowerback 38.8835 -1.9134 9.41874
upperback 10.2462 -1.85908 -10.7021
thorax -8.61251 -1.54415 -16.114
lowerneck 2.84268 7.05671 -12.0648
upperneck 14.3426 9.20812 -2.66971
head 3.83024 3.51264 1.32077
rclavicle 2.95941e-014 -2.94201e-014
rhumerus -41.0038 15.1793 -92.3852
rradius 38.0783
rwrist 27.0436
rhand -17.7572 22.0765
rfingers 7.12502
rthumb 8.50469 -7.73223
lclavicle 2.95941e-014 -2.94201e-014
lhumerus -25.2818 -21.4544 72.0546
lradius 128.759
lwrist 21.707
lhand -20.9442 -25.4722
lfingers 7.12502
lthumb 5.42822 4.43826
rfemur 21.2447 9.30072 11.7285
rtibia 35.838
rfoot -23.9212 -9.14863
rtoes -11.6389
lfemur -66.9033 29.5172 -13.1978
ltibia 130.093
lfoot 47.1203 -17.4172
ltoes -21.6992
41
root 3.73919 16.9494 -2.22846 -173.222 -70.2176 133.536
lowerback 40.4555 -1.68518 9.22432
upperback 10.5836 -1.67174 -10.7273
thorax -8.67567 -1.47227 -16.0866
lowerneck 2.91059 7.08944 -12.4506
upperneck 15.2164 9.20566 -2.14729
head 4.09673 3.44361 1.57644
rclavicle 2.62893e-014 -1.74931e-014
rhumerus -40.6299 16.3273 -92.2609
rradius 38.7492
rwrist 26.1799
rhand -17.4728 22.2529
rfingers 7.12502
rthumb 8.77913 -7.54453
lclavicle 2.62893e-014 -1.74931e-014
lhumerus -23.6284 -22.5763 70.5807
lradius 128.194
lwrist 22.5762
lhand -20.5883 -25.5227
lfingers 7.12502
lthumb 5.77186 4.37873
rfemur 23.4354 9.39409 11.445
rtibia 34.7085
rfoot -23.3601 -8.83764
rtoes -11.8841
lfemur -70.2797 30.0603 -13.7078
ltibia 129.991
lfoot 47.6136 -17.4187
ltoes -24.2206
42
root 3.72351 16.9592 -2.23816 -174.032 -69.8849 132.866
lowerback 42.0441 -1.4248 8.9124
upperback 10.7788 -1.49042 -10.7195
thorax -8.73759 -1.40354 -15.9763
lowerneck 2.98262 7.14526 -12.7926
upperneck 16.5346 9.23416 -1.66256
head 4.0702 3.37201 1.71965
rclavicle 4.61677e-014 1.90833e-014
rhumerus -40.2356 17.1366 -91.9334
rradius 39.3497
rwrist 25.6757
rhand -17.3851 22.5547
rfingers 7.12502
rthumb 8.86376 -7.23911
lclavicle 4.61677e-014 1.90833e-014
lhumerus -21.92 -23.6289 69.0755
lradius 127.646
lwrist 23.4637
lhand -20.1937 -25.5053
lfingers 7.12502
lthumb 6.1528 4.38538
rfemur 25.4132 9.45038 11.0508
rtibia 33.6917
rfoot -22.8238 -8.48317
rtoes -12.1818
lfemur -73.5981 30.3059 -14.3425
ltibia 129.438
lfoot 47.696 -17.3934
ltoes -25.8559
43
root 3.70954 16.9589 -2.24941 -174.632 -69.5972 132.124
lowerback 43.4328 -1.15032 8.58733
upperback 11.0329 -1.32279 -10.7257
thorax -8.80414 -1.34522 -15.8569
lowerneck 3.17116 7.23128 -13.0969
upperneck 17.5393 9.2707 -1.23025
head 4.31594 3.31111 1.9131
rclavicle 3.19546e-014 -9.54166e-015
rhumerus -39.8686 17.6333 -91.5201
rradius 39.91
rwrist 25.333
rhand -17.4758 22.9923
rfingers 7.12502
rthumb 8.77619 -6.80523
lclavicle 3.19546e-014 -9.54166e-015
lhumerus -20.1462 -24.6196 67.5259
lradius 127.101
lwrist 24.3097
lhand -19.7738 -25.4136
lfingers 7.12502
lthumb 6.5582 4.46487
rfemur 27.0945 9.48172 10.6226
rtibia 32.9446
rfoot -22.4464 -8.10184
rtoes -12.4287
lfemur -76.7155 30.1513 -15.024
ltibia 128.322
lfoot 47.6767 -16.9174
ltoes -26.5147
44
root 3.69697 16.9442 -2.2615 -174.851 -69.3614 131.111
lowerback 44.7538 -0.865787 8.15218
upperback 11.258 -1.20501 -10.7286
thorax -8.88115 -1.31337 -15.6533
lowerneck 3.35126 7.3539 -13.4187
upperneck 18.5826 9.34963 -0.811051
head 4.57391 3.26358 2.10789
rclavicle 1.31198e-014 -2.38542e-015
rhumerus -39.4679 17.8734 -91.0139
rradius 40.3381
rwrist 25.0996
rhand -17.7936 23.5463
rfingers 7.12502
rthumb 8.46956 -6.26385
lclavicle 1.31198e-014 -2.38542e-015
lhumerus -18.4055 -25.5396 65.9221
lradius 126.661
lwrist 25.1047
lhand -19.3752 -25.3003
lfingers 7.12502
lthumb 6.94301 4.56584
rfemur 28.4777 9.47378 10.0745
rtibia 32.5139
rfoot -22.1952 -7.70508
rtoes -12.6125
lfemur -79.4693 29.5378 -15.7421
ltibia 126.567
lfoot 47.5827 -16.0022
ltoes -25.9305
45
root 3.68422 16.9185 -2.27469 -174.759 -69.1739 129.92
lowerback 45.979 -0.580707 7.63584
upperback 11.4411 -1.13944 -10.7452
thorax -8.98098 -1.30918 -15.4016
lowerneck 3.57722 7.51281 -13.6693
upperneck 19.635 9.46371 -0.438368
head 4.83136 3.23185 2.27744
rclavicle -1.83876e-014 -2.62396e-014
rhumerus -39.0461 18.0443 -90.504
rradius 40.6491
rwrist 24.6794
rhand -18.077 24.1104
rfingers 7.12502
rthumb 8.19604 -5.71064
lclavicle -1.83876e-014 -2.62396e-014
lhumerus -16.7299 -26.4375 64.1486
lradius 126.361
lwrist 25.9088
lhand -19.1088 -25.194
lfingers 7.12502
lthumb 7.20018 4.66354
rfemur 29.6225 9.43988 9.46154
rtibia 32.2909
rfoot -22.0678 -7.31185
rtoes -12.7758
lfemur -81.8497 28.5518 -16.3977
ltibia 124.201
lfoot 47.4743 -14.6979
ltoes -24.5933
46
root 3.67171 16.8915 -2.28904 -174.576 -69.017 128.75
lowerback 48.0418 -0.338734 6.97416
upperback 10.6337 -1.13943 -10.9209
thorax -9.02999 -1.2712 -14.9358
lowerneck 3.83199 7.69777 -13.8931
upperneck 20.6542 9.59577 -0.0532247
head 5.07363 3.21263 2.44594
rclavicle -9.49197e-015 7.87187e-014
rhumerus -38.5526 17.7579 -89.9876
rradius 40.8532
rwrist 24.4857
rhand -18.2909 24.4452
rfingers 7.12502
rthumb 7.98961 -5.38379
lclavicle -9.49197e-015 7.87187e-014
lhumerus -15.1012 -27.2416 62.3367
lradius 126.096
lwrist 26.626
lhand -18.8252 -25.0863
lfingers 7.12502
lthumb 7.47392 4.76166
rfemur 30.6189 9.39575 8.85206
rtibia 32.1355
rfoot -21.9771 -6.92516
rtoes -12.9076
lfemur -83.7927 27.3247 -16.8393
ltibia 121.293
lfoot 47.3528 -13.2317
ltoes -21.7786
